<svg width="85" height="67" viewBox="0 0 85 67" fill="none" xmlns="http://www.w3.org/2000/svg">
<path d="M70.9099 67H14.0901C6.30826 67 0 62.0276 0 55.8937V11.1063C0 4.97239 6.30826 0 14.0901 0H70.9099C78.6917 0 85 4.97239 85 11.1063V55.8937C85 62.0276 78.6917 67 70.9099 67Z" fill="#00AEEF"/>
<path d="M43.5029 28.2097C39.0806 28.2097 35.2324 30.1705 33.2943 33.0491C31.3556 30.1705 27.5093 28.2097 23.084 28.2097C20.5824 28.2076 18.1478 28.847 16.1479 30.0315V22.3571C16.1367 21.88 15.8882 21.4255 15.4558 21.0915C15.0235 20.7575 14.4419 20.5708 13.8366 20.5717C12.5742 20.5717 11.5582 21.3655 11.5293 22.3571V37.4693H11.5316C11.6336 42.4312 16.7634 46.4284 23.084 46.4284C27.5093 46.4284 31.3556 44.4658 33.2943 41.59C35.2324 44.4658 39.0806 46.4284 43.5029 46.4284C49.8832 46.4284 55.0589 42.3503 55.0589 37.3172C55.0589 32.2867 49.8832 28.2097 43.5029 28.2097ZM23.084 42.7814C19.2553 42.7814 16.1479 40.3367 16.1479 37.3185C16.1479 34.3014 19.2553 31.8565 23.084 31.8565C26.9123 31.8565 30.0131 34.3014 30.0131 37.3172C30.0131 40.3359 26.9123 42.7814 23.084 42.7814ZM43.5029 42.7814C39.6733 42.7814 36.5681 40.3359 36.5681 37.3172C36.5681 34.3014 39.6733 31.8565 43.5029 31.8565C47.3309 31.8565 50.4344 34.3014 50.4344 37.3172C50.4344 40.3359 47.3309 42.7814 43.5029 42.7814Z" fill="white"/>
<path d="M72.9902 43.3786L66.7088 37.3055L72.9978 31.2205C73.793 30.4178 73.5649 29.2969 72.4672 28.7015C71.3682 28.1008 69.8263 28.2547 68.9759 29.0336V29.0325L63.5651 34.2596L58.1593 29.0325V29.0336C57.3176 28.2547 55.7661 28.1008 54.6704 28.7015C53.5747 29.2974 53.3456 30.4178 54.1448 31.2205H54.1424L60.4205 37.3055L54.1424 43.3786H54.1448C53.3456 44.1839 53.5747 45.3012 54.6704 45.8993C55.7661 46.4973 57.3176 46.345 58.1593 45.565L63.5651 40.3453L68.9683 45.565C69.8196 46.345 71.3609 46.4973 72.4599 45.8993C73.558 45.3012 73.7871 44.1839 72.9902 43.3786Z" fill="white"/>
</svg>
